<mxfile host="app.diagrams.net" modified="2024-02-21T23:31:17.032Z" agent="Mozilla/5.0 (X11; Ubuntu; Linux x86_64; rv:109.0) Gecko/20100101 Firefox/116.0" version="23.1.5" etag="IbqfcsGPq2pFwzbUsf1j" type="github">
  <diagram name="PÃ¡gina-1" id="i_QSMLebnXW6dDSU2fce">
    <mxGraphModel>
      <root>
        <mxCell id="0" />
        <mxCell id="1" parent="0" />
      </root>
    </mxGraphModel>
  </diagram>
</mxfile>
